<svg width="637" height="285" viewBox="0 0 637 285" fill="none" xmlns="http://www.w3.org/2000/svg">
<path fill-rule="evenodd" clip-rule="evenodd" d="M43.5 230.741C43.5 230.741 90 205.88 136 205.88C167 203.765 188.543 144.369 228 138.396C259.167 133.679 288.467 157.277 322.5 153.067C341.92 150.665 366.247 131.625 412 125.493C476.777 116.813 481.164 89.8152 524 82.9424C551.13 78.5896 601 94.3418 601 94.3418V249.342H44L43.5 230.741Z" fill="url(#paint0_linear_458_665)"/>
<path d="M5.24912 13.608L8.67312 10.312C10.1931 8.856 10.5131 7.88 10.5131 6.792C10.5131 4.872 9.00912 3.672 6.67312 3.672C4.92912 3.672 3.44112 4.296 2.57712 5.368L3.66512 6.312C4.35312 5.48 5.32912 5.096 6.52912 5.096C8.09713 5.096 8.91313 5.8 8.91313 6.952C8.91313 7.656 8.68913 8.36 7.50513 9.512L2.94512 13.912V15H10.9931V13.608H5.24912ZM15.7086 8.264H14.4606L14.7646 5.192H19.7406V3.8H13.4206L12.8286 9.656H15.3726C17.9646 9.656 18.7646 10.44 18.7646 11.704C18.7646 12.92 17.8046 13.704 16.1086 13.704C14.7486 13.704 13.5006 13.208 12.7486 12.504L12.0126 13.768C12.9726 14.616 14.5406 15.128 16.1246 15.128C18.9886 15.128 20.3646 13.576 20.3646 11.64C20.3646 9.656 19.0526 8.264 15.7086 8.264ZM26.4721 15.128C29.0801 15.128 31.0321 13.048 31.0321 9.4C31.0321 5.752 29.0801 3.672 26.4721 3.672C23.8481 3.672 21.8961 5.752 21.8961 9.4C21.8961 13.048 23.8481 15.128 26.4721 15.128ZM26.4721 13.704C24.7121 13.704 23.4961 12.264 23.4961 9.4C23.4961 6.536 24.7121 5.096 26.4721 5.096C28.2161 5.096 29.4321 6.536 29.4321 9.4C29.4321 12.264 28.2161 13.704 26.4721 13.704Z" fill="#BDBDBD"/>
<path d="M3.81162 60.608L7.23562 57.312C8.75562 55.856 9.07563 54.88 9.07563 53.792C9.07563 51.872 7.57162 50.672 5.23562 50.672C3.49162 50.672 2.00362 51.296 1.13962 52.368L2.22762 53.312C2.91562 52.48 3.89162 52.096 5.09162 52.096C6.65963 52.096 7.47563 52.8 7.47563 53.952C7.47563 54.656 7.25163 55.36 6.06763 56.512L1.50762 60.912V62H9.55562V60.608H3.81162ZM15.6002 62.128C18.2082 62.128 20.1602 60.048 20.1602 56.4C20.1602 52.752 18.2082 50.672 15.6002 50.672C12.9762 50.672 11.0242 52.752 11.0242 56.4C11.0242 60.048 12.9762 62.128 15.6002 62.128ZM15.6002 60.704C13.8402 60.704 12.6242 59.264 12.6242 56.4C12.6242 53.536 13.8402 52.096 15.6002 52.096C17.3442 52.096 18.5603 53.536 18.5603 56.4C18.5603 59.264 17.3442 60.704 15.6002 60.704ZM26.4721 62.128C29.0801 62.128 31.0321 60.048 31.0321 56.4C31.0321 52.752 29.0801 50.672 26.4721 50.672C23.8481 50.672 21.8961 52.752 21.8961 56.4C21.8961 60.048 23.8481 62.128 26.4721 62.128ZM26.4721 60.704C24.7121 60.704 23.4961 59.264 23.4961 56.4C23.4961 53.536 24.7121 52.096 26.4721 52.096C28.2161 52.096 29.4321 53.536 29.4321 56.4C29.4321 59.264 28.2161 60.704 26.4721 60.704Z" fill="#BDBDBD"/>
<path d="M5.74675 97.8V99.192H8.27475V109H9.85875V97.8H5.74675ZM15.7086 102.264H14.4606L14.7646 99.192H19.7406V97.8H13.4206L12.8286 103.656H15.3726C17.9646 103.656 18.7646 104.44 18.7646 105.704C18.7646 106.92 17.8046 107.704 16.1086 107.704C14.7486 107.704 13.5006 107.208 12.7486 106.504L12.0126 107.768C12.9726 108.616 14.5406 109.128 16.1246 109.128C18.9886 109.128 20.3646 107.576 20.3646 105.64C20.3646 103.656 19.0526 102.264 15.7086 102.264ZM26.4721 109.128C29.0801 109.128 31.0321 107.048 31.0321 103.4C31.0321 99.752 29.0801 97.672 26.4721 97.672C23.8481 97.672 21.8961 99.752 21.8961 103.4C21.8961 107.048 23.8481 109.128 26.4721 109.128ZM26.4721 107.704C24.7121 107.704 23.4961 106.264 23.4961 103.4C23.4961 100.536 24.7121 99.096 26.4721 99.096C28.2161 99.096 29.4321 100.536 29.4321 103.4C29.4321 106.264 28.2161 107.704 26.4721 107.704Z" fill="#BDBDBD"/>
<path d="M4.26237 144.8V146.192H6.79037V156H8.37437V144.8H4.26237ZM15.6002 156.128C18.2082 156.128 20.1602 154.048 20.1602 150.4C20.1602 146.752 18.2082 144.672 15.6002 144.672C12.9762 144.672 11.0242 146.752 11.0242 150.4C11.0242 154.048 12.9762 156.128 15.6002 156.128ZM15.6002 154.704C13.8402 154.704 12.6242 153.264 12.6242 150.4C12.6242 147.536 13.8402 146.096 15.6002 146.096C17.3442 146.096 18.5603 147.536 18.5603 150.4C18.5603 153.264 17.3442 154.704 15.6002 154.704ZM26.4721 156.128C29.0801 156.128 31.0321 154.048 31.0321 150.4C31.0321 146.752 29.0801 144.672 26.4721 144.672C23.8481 144.672 21.8961 146.752 21.8961 150.4C21.8961 154.048 23.8481 156.128 26.4721 156.128ZM26.4721 154.704C24.7121 154.704 23.4961 153.264 23.4961 150.4C23.4961 147.536 24.7121 146.096 26.4721 146.096C28.2161 146.096 29.4321 147.536 29.4321 150.4C29.4321 153.264 28.2161 154.704 26.4721 154.704Z" fill="#BDBDBD"/>
<path d="M15.7086 196.264H14.4606L14.7646 193.192H19.7406V191.8H13.4206L12.8286 197.656H15.3726C17.9646 197.656 18.7646 198.44 18.7646 199.704C18.7646 200.92 17.8046 201.704 16.1086 201.704C14.7486 201.704 13.5006 201.208 12.7486 200.504L12.0126 201.768C12.9726 202.616 14.5406 203.128 16.1246 203.128C18.9886 203.128 20.3646 201.576 20.3646 199.64C20.3646 197.656 19.0526 196.264 15.7086 196.264ZM26.4721 203.128C29.0801 203.128 31.0321 201.048 31.0321 197.4C31.0321 193.752 29.0801 191.672 26.4721 191.672C23.8481 191.672 21.8961 193.752 21.8961 197.4C21.8961 201.048 23.8481 203.128 26.4721 203.128ZM26.4721 201.704C24.7121 201.704 23.4961 200.264 23.4961 197.4C23.4961 194.536 24.7121 193.096 26.4721 193.096C28.2161 193.096 29.4321 194.536 29.4321 197.4C29.4321 200.264 28.2161 201.704 26.4721 201.704Z" fill="#BDBDBD"/>
<path d="M26.4721 250.128C29.0801 250.128 31.0321 248.048 31.0321 244.4C31.0321 240.752 29.0801 238.672 26.4721 238.672C23.8481 238.672 21.8961 240.752 21.8961 244.4C21.8961 248.048 23.8481 250.128 26.4721 250.128ZM26.4721 248.704C24.7121 248.704 23.4961 247.264 23.4961 244.4C23.4961 241.536 24.7121 240.096 26.4721 240.096C28.2161 240.096 29.4321 241.536 29.4321 244.4C29.4321 247.264 28.2161 248.704 26.4721 248.704Z" fill="#BDBDBD"/>
<path d="M47.4919 274.128C49.7799 274.128 50.9959 272.896 50.9959 270.4V262.8H45.3639V264.192H49.4119V270.48C49.4119 271.984 48.7559 272.752 47.4919 272.752C46.5479 272.752 45.7639 272.288 45.1559 271.424L44.2279 272.512C44.9479 273.552 46.1639 274.128 47.4919 274.128ZM57.319 265.44C55.959 265.44 54.695 265.824 53.815 266.528L54.455 267.68C55.111 267.12 56.135 266.768 57.143 266.768C58.663 266.768 59.415 267.52 59.415 268.816V269.12H56.983C54.455 269.12 53.575 270.24 53.575 271.6C53.575 273.072 54.791 274.096 56.711 274.096C58.039 274.096 58.983 273.648 59.495 272.88V274H60.951V268.88C60.951 266.56 59.639 265.44 57.319 265.44ZM56.967 272.912C55.799 272.912 55.095 272.384 55.095 271.536C55.095 270.816 55.527 270.224 57.047 270.224H59.415V271.408C59.031 272.384 58.119 272.912 56.967 272.912ZM68.5215 265.44C67.1775 265.44 66.0895 265.936 65.4655 266.8V265.52H63.9935V274H65.5295V269.632C65.5295 267.792 66.5855 266.816 68.2175 266.816C69.6735 266.816 70.5055 267.632 70.5055 269.296V274H72.0415V269.12C72.0415 266.624 70.5855 265.44 68.5215 265.44Z" fill="#BDBDBD"/>
<path d="M127.106 264.192V262.8H119.202V274H120.802V269.472H126.418V268.096H120.802V264.192H127.106ZM136.733 269.808C136.733 267.2 134.988 265.44 132.54 265.44C130.092 265.44 128.284 267.248 128.284 269.76C128.284 272.288 130.108 274.096 132.844 274.096C134.252 274.096 135.42 273.616 136.188 272.72L135.34 271.728C134.716 272.416 133.884 272.752 132.892 272.752C131.212 272.752 130.012 271.76 129.82 270.272H136.7C136.716 270.128 136.733 269.936 136.733 269.808ZM132.54 266.736C134.028 266.736 135.1 267.744 135.26 269.168H129.82C129.98 267.728 131.068 266.736 132.54 266.736ZM143.561 265.44C142.361 265.44 141.305 265.888 140.601 266.8V262.128H139.065V274H140.537V272.656C141.225 273.616 142.313 274.096 143.561 274.096C146.041 274.096 147.849 272.352 147.849 269.76C147.849 267.168 146.041 265.44 143.561 265.44ZM143.433 272.752C141.817 272.752 140.585 271.568 140.585 269.76C140.585 267.952 141.817 266.784 143.433 266.784C145.065 266.784 146.297 267.952 146.297 269.76C146.297 271.568 145.065 272.752 143.433 272.752ZM151.644 266.944V265.52H150.172V274H151.708V269.776C151.708 267.92 152.732 266.912 154.38 266.912C154.492 266.912 154.604 266.912 154.732 266.928V265.44C153.244 265.44 152.188 265.952 151.644 266.944Z" fill="#BDBDBD"/>
<path d="M226.597 274L226.581 262.8H225.269L220.661 270.672L215.989 262.8H214.677V274H216.213V265.888L220.261 272.64H220.997L225.045 265.84L225.061 274H226.597ZM233.022 265.44C231.662 265.44 230.398 265.824 229.518 266.528L230.158 267.68C230.814 267.12 231.838 266.768 232.846 266.768C234.366 266.768 235.118 267.52 235.118 268.816V269.12H232.686C230.158 269.12 229.278 270.24 229.278 271.6C229.278 273.072 230.494 274.096 232.414 274.096C233.742 274.096 234.686 273.648 235.198 272.88V274H236.654V268.88C236.654 266.56 235.342 265.44 233.022 265.44ZM232.67 272.912C231.502 272.912 230.798 272.384 230.798 271.536C230.798 270.816 231.23 270.224 232.75 270.224H235.118V271.408C234.734 272.384 233.822 272.912 232.67 272.912ZM241.169 266.944V265.52H239.697V274H241.233V269.776C241.233 267.92 242.257 266.912 243.905 266.912C244.017 266.912 244.129 266.912 244.257 266.928V265.44C242.769 265.44 241.713 265.952 241.169 266.944Z" fill="#BDBDBD"/>
<path d="M318.154 274H319.834L314.746 262.8H313.162L308.09 274H309.738L310.97 271.2H316.922L318.154 274ZM311.53 269.92L313.946 264.432L316.362 269.92H311.53ZM325.977 265.44C324.729 265.44 323.641 265.92 322.953 266.864V265.52H321.481V277.104H323.017V272.72C323.721 273.632 324.777 274.096 325.977 274.096C328.457 274.096 330.265 272.368 330.265 269.76C330.265 267.168 328.457 265.44 325.977 265.44ZM325.849 272.752C324.233 272.752 323.001 271.568 323.001 269.76C323.001 267.968 324.233 266.784 325.849 266.784C327.481 266.784 328.713 267.968 328.713 269.76C328.713 271.568 327.481 272.752 325.849 272.752ZM334.059 266.944V265.52H332.587V274H334.123V269.776C334.123 267.92 335.147 266.912 336.795 266.912C336.907 266.912 337.019 266.912 337.147 266.928V265.44C335.659 265.44 334.603 265.952 334.059 266.944Z" fill="#BDBDBD"/>
<path d="M422.488 274L422.472 262.8H421.16L416.552 270.672L411.88 262.8H410.568V274H412.104V265.888L416.152 272.64H416.888L420.936 265.84L420.952 274H422.488ZM428.913 265.44C427.553 265.44 426.289 265.824 425.409 266.528L426.049 267.68C426.705 267.12 427.729 266.768 428.737 266.768C430.257 266.768 431.009 267.52 431.009 268.816V269.12H428.577C426.049 269.12 425.169 270.24 425.169 271.6C425.169 273.072 426.385 274.096 428.305 274.096C429.633 274.096 430.577 273.648 431.089 272.88V274H432.545V268.88C432.545 266.56 431.233 265.44 428.913 265.44ZM428.561 272.912C427.393 272.912 426.689 272.384 426.689 271.536C426.689 270.816 427.121 270.224 428.641 270.224H431.009V271.408C430.625 272.384 429.713 272.912 428.561 272.912ZM441.431 265.52L438.503 272.304L435.543 265.52H433.943L437.687 273.984L437.415 274.576C436.999 275.552 436.535 275.888 435.799 275.888C435.223 275.888 434.695 275.664 434.279 275.264L433.623 276.416C434.151 276.928 434.983 277.2 435.799 277.2C437.095 277.2 438.071 276.64 438.823 274.848L442.935 265.52H441.431Z" fill="#BDBDBD"/>
<path d="M492.859 274.128C495.147 274.128 496.363 272.896 496.363 270.4V262.8H490.731V264.192H494.779V270.48C494.779 271.984 494.123 272.752 492.859 272.752C491.915 272.752 491.131 272.288 490.523 271.424L489.595 272.512C490.315 273.552 491.531 274.128 492.859 274.128ZM505.966 265.52V269.904C505.966 271.728 504.942 272.72 503.342 272.72C501.886 272.72 501.054 271.888 501.054 270.224V265.52H499.518V270.4C499.518 272.896 500.974 274.096 503.166 274.096C504.366 274.096 505.422 273.6 506.046 272.72V274H507.502V265.52H505.966ZM515.154 265.44C513.81 265.44 512.722 265.936 512.098 266.8V265.52H510.626V274H512.162V269.632C512.162 267.792 513.218 266.816 514.85 266.816C516.306 266.816 517.138 267.632 517.138 269.296V274H518.674V269.12C518.674 266.624 517.218 265.44 515.154 265.44Z" fill="#BDBDBD"/>
<path d="M592.07 274.128C594.358 274.128 595.574 272.896 595.574 270.4V262.8H589.942V264.192H593.99V270.48C593.99 271.984 593.334 272.752 592.07 272.752C591.126 272.752 590.342 272.288 589.734 271.424L588.806 272.512C589.526 273.552 590.742 274.128 592.07 274.128ZM605.177 265.52V269.904C605.177 271.728 604.153 272.72 602.553 272.72C601.097 272.72 600.265 271.888 600.265 270.224V265.52H598.729V270.4C598.729 272.896 600.185 274.096 602.377 274.096C603.577 274.096 604.633 273.6 605.257 272.72V274H606.713V265.52H605.177ZM609.837 274H611.373V262.128H609.837V274Z" fill="#BDBDBD"/>
<path d="M43.5 248.5H601.418" stroke="#BEBDBD" stroke-opacity="0.2" stroke-linecap="square" stroke-dasharray="4"/>
<path d="M43.5 201.5H601.418" stroke="#BEBDBD" stroke-opacity="0.2" stroke-linecap="square" stroke-dasharray="4"/>
<path d="M43.5 154.5H601.418" stroke="#BEBDBD" stroke-opacity="0.2" stroke-linecap="square" stroke-dasharray="4"/>
<path d="M43.5 107.5H601.418" stroke="#BEBDBD" stroke-opacity="0.2" stroke-linecap="square" stroke-dasharray="4"/>
<path d="M136 248.5V3.662" stroke="#BEBDBD" stroke-opacity="0.2" stroke-linecap="square" stroke-dasharray="4"/>
<path d="M228 248.5V3.662" stroke="#BEBDBD" stroke-opacity="0.2" stroke-linecap="square" stroke-dasharray="4"/>
<path d="M320 248.5V3.662" stroke="#BEBDBD" stroke-opacity="0.2" stroke-linecap="square" stroke-dasharray="4"/>
<path d="M412 248.5V3.662" stroke="#BEBDBD" stroke-opacity="0.2" stroke-linecap="square" stroke-dasharray="4"/>
<path d="M504 248.5V3.662" stroke="#BEBDBD" stroke-opacity="0.2" stroke-linecap="square" stroke-dasharray="4"/>
<path d="M43.5 61.5H601.418" stroke="#BEBDBD" stroke-opacity="0.2" stroke-linecap="square" stroke-dasharray="4"/>
<path d="M43.5 14.5H601.418" stroke="#BEBDBD" stroke-opacity="0.2" stroke-linecap="square" stroke-dasharray="4"/>
<path d="M44 248.5V3.662" stroke="#BEBDBD" stroke-opacity="0.2" stroke-linecap="square" stroke-dasharray="4"/>
<path fill-rule="evenodd" clip-rule="evenodd" d="M228 141C229.657 141 231 139.657 231 138C231 136.343 229.657 135 228 135C226.343 135 225 136.343 225 138C225 139.657 226.343 141 228 141Z" fill="white" stroke="#0095E8"/>
<path fill-rule="evenodd" clip-rule="evenodd" d="M171.13 106.783C171.13 104.694 172.824 103 174.913 103H282.087C284.176 103 285.869 104.694 285.869 106.783V123.384C285.869 125.473 284.176 127.167 282.087 127.167H233.126L227.994 132L223.026 127.167H174.913C172.824 127.167 171.13 125.473 171.13 123.384V106.783Z" fill="#F2F2F2"/>
<path d="M202.944 121.128C205.904 121.128 207.28 119.656 207.28 117.944C207.28 113.832 200.496 115.544 200.496 112.808C200.496 111.832 201.312 111.032 203.216 111.032C204.208 111.032 205.312 111.32 206.288 111.944L206.816 110.664C205.888 110.024 204.528 109.672 203.216 109.672C200.272 109.672 198.928 111.144 198.928 112.872C198.928 117.032 205.712 115.304 205.712 118.04C205.712 119.016 204.88 119.768 202.944 119.768C201.504 119.768 200.08 119.224 199.248 118.472L198.656 119.72C199.552 120.552 201.232 121.128 202.944 121.128ZM212.681 112.44C211.322 112.44 210.057 112.824 209.177 113.528L209.817 114.68C210.474 114.12 211.497 113.768 212.505 113.768C214.026 113.768 214.778 114.52 214.778 115.816V116.12H212.345C209.817 116.12 208.937 117.24 208.937 118.6C208.937 120.072 210.153 121.096 212.073 121.096C213.402 121.096 214.345 120.648 214.858 119.88V121H216.314V115.88C216.314 113.56 215.002 112.44 212.681 112.44ZM212.33 119.912C211.161 119.912 210.457 119.384 210.457 118.536C210.457 117.816 210.889 117.224 212.41 117.224H214.778V118.408C214.394 119.384 213.482 119.912 212.33 119.912ZM219.356 121H220.892V109.128H219.356V121ZM231.689 116.808C231.689 114.2 229.945 112.44 227.497 112.44C225.049 112.44 223.241 114.248 223.241 116.76C223.241 119.288 225.065 121.096 227.801 121.096C229.209 121.096 230.377 120.616 231.145 119.72L230.297 118.728C229.673 119.416 228.841 119.752 227.849 119.752C226.169 119.752 224.969 118.76 224.777 117.272H231.657C231.673 117.128 231.689 116.936 231.689 116.808ZM227.497 113.736C228.985 113.736 230.057 114.744 230.217 116.168H224.777C224.937 114.728 226.025 113.736 227.497 113.736ZM236.454 121.096C238.71 121.096 240.118 120.12 240.118 118.584C240.118 115.288 234.742 116.92 234.742 114.92C234.742 114.248 235.398 113.752 236.742 113.752C237.574 113.752 238.422 113.928 239.19 114.424L239.846 113.208C239.11 112.728 237.862 112.44 236.758 112.44C234.582 112.44 233.222 113.464 233.222 114.984C233.222 118.36 238.582 116.712 238.582 118.616C238.582 119.336 237.99 119.768 236.566 119.768C235.462 119.768 234.31 119.4 233.59 118.888L232.95 120.104C233.654 120.664 235.046 121.096 236.454 121.096ZM242.605 114.632C243.181 114.632 243.661 114.168 243.661 113.528C243.661 112.888 243.181 112.44 242.605 112.44C242.013 112.44 241.517 112.888 241.517 113.528C241.517 114.168 242.013 114.632 242.605 114.632ZM242.605 121.096C243.181 121.096 243.661 120.632 243.661 119.992C243.661 119.352 243.181 118.904 242.605 118.904C242.013 118.904 241.517 119.352 241.517 119.992C241.517 120.632 242.013 121.096 242.605 121.096ZM251.999 119.608L255.423 116.312C256.943 114.856 257.263 113.88 257.263 112.792C257.263 110.872 255.759 109.672 253.423 109.672C251.679 109.672 250.191 110.296 249.327 111.368L250.415 112.312C251.103 111.48 252.079 111.096 253.279 111.096C254.847 111.096 255.663 111.8 255.663 112.952C255.663 113.656 255.439 114.36 254.255 115.512L249.695 119.912V121H257.743V119.608H251.999ZM263.788 121.128C266.396 121.128 268.348 119.048 268.348 115.4C268.348 111.752 266.396 109.672 263.788 109.672C261.164 109.672 259.212 111.752 259.212 115.4C259.212 119.048 261.164 121.128 263.788 121.128ZM263.788 119.704C262.028 119.704 260.812 118.264 260.812 115.4C260.812 112.536 262.028 111.096 263.788 111.096C265.532 111.096 266.748 112.536 266.748 115.4C266.748 118.264 265.532 119.704 263.788 119.704ZM273.284 114.264H272.036L272.34 111.192H277.316V109.8H270.996L270.404 115.656H272.948C275.54 115.656 276.34 116.44 276.34 117.704C276.34 118.92 275.38 119.704 273.684 119.704C272.324 119.704 271.076 119.208 270.324 118.504L269.588 119.768C270.548 120.616 272.116 121.128 273.7 121.128C276.564 121.128 277.94 119.576 277.94 117.64C277.94 115.656 276.628 114.264 273.284 114.264Z" fill="#222226"/>
<path fill-rule="evenodd" clip-rule="evenodd" d="M187 117C188.657 117 190 115.657 190 114C190 112.343 188.657 111 187 111C185.343 111 184 112.343 184 114C184 115.657 185.343 117 187 117Z" fill="#0095E8"/>
<path fill-rule="evenodd" clip-rule="evenodd" d="M600 220.473C600 220.473 550 187.514 504 187.514C473 185.854 461.221 161.264 417 161.264C346.533 161.264 298.777 209.983 234 203.169C169.223 196.356 163.836 123.134 121 117.74C93.87 114.323 43.5 151.137 43.5 151.137L44 248.342H601L600 220.473Z" fill="url(#paint1_linear_458_665)"/>
<defs>
<linearGradient id="paint0_linear_458_665" x1="542.494" y1="241.917" x2="542.494" y2="82.6861" gradientUnits="userSpaceOnUse">
<stop stop-color="#0095E8" stop-opacity="0.05"/>
<stop offset="1" stop-color="#0095E8" stop-opacity="0.8"/>
</linearGradient>
<linearGradient id="paint1_linear_458_665" x1="123.876" y1="236.649" x2="123.876" y2="122.37" gradientUnits="userSpaceOnUse">
<stop stop-color="#2C03D9" stop-opacity="0.05"/>
<stop offset="1" stop-color="#4E22B9" stop-opacity="0.8"/>
</linearGradient>
</defs>
</svg>
