<svg width="43" height="31" viewBox="0 0 43 31" fill="none" xmlns="http://www.w3.org/2000/svg">
<path d="M27.125 0.5C31.1032 0.5 34.9185 2.08035 37.7316 4.89339C40.5446 7.70644 42.125 11.5217 42.125 15.5C42.125 19.4782 40.5446 23.2935 37.7316 26.1066C34.9185 28.9196 31.1032 30.5 27.125 30.5C23.1467 30.5 19.3314 28.9196 16.5184 26.1066C13.7053 23.2935 12.125 19.4782 12.125 15.5C12.125 11.5217 13.7053 7.70644 16.5184 4.89339C19.3314 2.08035 23.1467 0.5 27.125 0.5ZM27.125 4.25C24.1413 4.25 21.2798 5.43526 19.17 7.54504C17.0603 9.65482 15.875 12.5163 15.875 15.5C15.875 18.4837 17.0603 21.3451 19.17 23.4549C21.2798 25.5647 24.1413 26.75 27.125 26.75C30.1087 26.75 32.9702 25.5647 35.0799 23.4549C37.1897 21.3451 38.375 18.4837 38.375 15.5C38.375 12.5163 37.1897 9.65482 35.0799 7.54504C32.9702 5.43526 30.1087 4.25 27.125 4.25ZM25.25 7.99999H28.0625V15.0875L32.4312 19.4562L30.4437 21.4437L25.25 16.25V7.99999ZM2.75 26.75C2.25272 26.75 1.77581 26.5524 1.42417 26.2008C1.07254 25.8492 0.875 25.3723 0.875 24.875C0.875 24.3777 1.07254 23.9008 1.42417 23.5491C1.77581 23.1975 2.25272 23 2.75 23H9.93125C10.5125 24.3312 11.2625 25.5875 12.125 26.75H2.75ZM4.625 17.375C4.12772 17.375 3.6508 17.1774 3.29917 16.8258C2.94754 16.4742 2.75 15.9973 2.75 15.5C2.75 15.0027 2.94754 14.5258 3.29917 14.1742C3.6508 13.8225 4.12772 13.625 4.625 13.625H8.46875L8.375 15.5L8.46875 17.375H4.625ZM6.5 7.99999C6.00272 7.99999 5.5258 7.80245 5.17417 7.45082C4.82254 7.09919 4.625 6.62227 4.625 6.12499C4.625 5.62771 4.82254 5.1508 5.17417 4.79917C5.5258 4.44754 6.00272 4.25 6.5 4.25H12.125C11.2625 5.41249 10.5125 6.66874 9.93125 7.99999H6.5Z" fill="#8EC2F2"/>
</svg>
