<svg width="129" height="20" viewBox="0 0 129 20" fill="none" xmlns="http://www.w3.org/2000/svg">
<path d="M6.368 19.144C10.664 19.144 12.632 17.032 12.632 14.56C12.632 8.44 2.288 11.224 2.288 6.616C2.288 4.936 3.656 3.568 6.728 3.568C8.216 3.568 9.896 4.024 11.336 4.96L11.936 3.544C10.592 2.608 8.624 2.056 6.728 2.056C2.456 2.056 0.536 4.192 0.536 6.664C0.536 12.88 10.88 10.048 10.88 14.656C10.88 16.312 9.512 17.632 6.368 17.632C4.16 17.632 2.024 16.768 0.824 15.592L0.128 16.96C1.376 18.256 3.848 19.144 6.368 19.144ZM27.2576 12.688C27.2576 8.896 24.6896 6.28 21.1376 6.28C17.5856 6.28 14.9696 8.944 14.9696 12.688C14.9696 16.432 17.6576 19.12 21.5936 19.12C23.5856 19.12 25.3376 18.4 26.4656 17.056L25.5056 15.952C24.5456 17.056 23.1776 17.608 21.6416 17.608C18.8816 17.608 16.8656 15.856 16.6736 13.216H27.2336C27.2336 13.024 27.2576 12.832 27.2576 12.688ZM21.1376 7.744C23.6096 7.744 25.4096 9.472 25.6256 11.944H16.6736C16.8896 9.472 18.6896 7.744 21.1376 7.744ZM32.458 8.848V6.376H30.826V19H32.53V12.568C32.53 9.592 34.138 7.912 36.778 7.912C36.898 7.912 37.042 7.936 37.186 7.936V6.28C34.858 6.28 33.25 7.168 32.458 8.848ZM49.8384 6.376L45.0624 17.128L40.3344 6.376H38.5584L44.1504 19H45.9024L51.5184 6.376H49.8384ZM54.8822 3.616C55.6022 3.616 56.1302 3.064 56.1302 2.368C56.1302 1.72 55.5782 1.192 54.8822 1.192C54.1862 1.192 53.6342 1.744 53.6342 2.392C53.6342 3.064 54.1862 3.616 54.8822 3.616ZM54.0182 19H55.7222V6.376H54.0182V19ZM65.7955 19.12C67.9315 19.12 69.7315 18.256 70.7395 16.624L69.4675 15.76C68.6035 17.032 67.2595 17.608 65.7955 17.608C63.0355 17.608 61.0195 15.664 61.0195 12.688C61.0195 9.736 63.0355 7.768 65.7955 7.768C67.2595 7.768 68.6035 8.368 69.4675 9.64L70.7395 8.776C69.7315 7.12 67.9315 6.28 65.7955 6.28C62.0275 6.28 59.2915 8.92 59.2915 12.688C59.2915 16.456 62.0275 19.12 65.7955 19.12ZM84.992 12.688C84.992 8.896 82.424 6.28 78.872 6.28C75.32 6.28 72.704 8.944 72.704 12.688C72.704 16.432 75.392 19.12 79.328 19.12C81.32 19.12 83.072 18.4 84.2 17.056L83.24 15.952C82.28 17.056 80.912 17.608 79.376 17.608C76.616 17.608 74.6 15.856 74.408 13.216H84.968C84.968 13.024 84.992 12.832 84.992 12.688ZM78.872 7.744C81.344 7.744 83.144 9.472 83.36 11.944H74.408C74.624 9.472 76.424 7.744 78.872 7.744ZM105.336 6.088L102.192 14.824L99.1204 6.088H95.9524L92.7844 14.824L89.7364 6.088H86.2084L90.8644 19H94.4644L97.4644 10.984L100.368 19H103.968L108.648 6.088H105.336ZM112.361 4.288C113.753 4.288 114.689 3.376 114.689 2.128C114.689 0.975999 113.753 0.111999 112.361 0.111999C110.969 0.111999 110.033 1.024 110.033 2.2C110.033 3.376 110.969 4.288 112.361 4.288ZM110.489 19H114.233V6.088H110.489V19ZM121.648 16.12L128.224 8.344V6.088H117.088V8.968H123.496L116.92 16.744V19H128.44V16.12H121.648Z" fill="white"/>
</svg>
