<svg width="197" height="197" viewBox="0 0 197 197" fill="none" xmlns="http://www.w3.org/2000/svg">
<circle cx="98.5" cy="98.5" r="90.5" stroke="#6F52ED" stroke-width="15"/>
<path d="M173.748 148.779C163.804 163.662 149.67 175.261 133.133 182.111C116.596 188.961 98.3996 190.753 80.8444 187.261C63.2891 183.769 47.1635 175.15 34.5069 162.493C21.8502 149.836 13.2309 133.711 9.73897 116.156C6.24701 98.6004 8.03921 80.4039 14.8889 63.8671C21.7387 47.3304 33.3383 33.1963 48.2209 23.252C63.1036 13.3077 80.6008 8 98.5 8" stroke="#FFB800" stroke-width="15"/>
<path d="M9.73897 116.156C6.24701 98.6004 8.03921 80.4039 14.8889 63.8671C21.7387 47.3304 33.3383 33.1963 48.2209 23.252C63.1036 13.3077 80.6008 8 98.5 8" stroke="#33D69F" stroke-width="15"/>
<path d="M28.0585 41.6824C15.4377 57.3294 8.38585 76.733 8.01538 96.8321C7.64491 116.931 13.9769 136.582 26.0125 152.683" stroke="#FF4C61" stroke-width="15"/>
</svg>
