<svg width="27" height="45" viewBox="0 0 27 45" fill="none" xmlns="http://www.w3.org/2000/svg">
<path d="M20.2024 24.0042C20.4869 23.4099 21.2752 22.8593 21.955 22.7856C22.6348 22.7119 23.2544 22.1176 23.3315 21.468C23.4135 20.823 23.9872 20.0674 24.6068 19.7933C24.9189 19.6415 25.1729 19.3995 25.3326 19.1016C25.4924 18.8038 25.5497 18.4655 25.4963 18.1347C25.3565 17.4943 25.6603 16.6074 26.1617 16.1675C26.4104 15.9304 26.574 15.624 26.629 15.2925C26.684 14.9609 26.6276 14.6213 26.4679 14.3223C26.3025 14.0008 26.2166 13.6474 26.2166 13.2891C26.2166 12.9309 26.3025 12.5775 26.4679 12.256C26.6279 11.9571 26.6846 11.6174 26.6295 11.2857C26.5745 10.9541 26.4107 10.6477 26.1617 10.4108C25.6603 9.96625 25.3589 9.08168 25.4963 8.44359C25.5504 8.11216 25.4934 7.77289 25.3337 7.47422C25.1739 7.17554 24.9195 6.93272 24.6068 6.78041C24.2756 6.61155 23.9887 6.37311 23.7678 6.08304C23.5469 5.79297 23.3978 5.45882 23.3315 5.10571C23.2765 4.77554 23.1139 4.47038 22.8667 4.23377C22.6195 3.99716 22.3004 3.84117 21.955 3.78807C21.5853 3.72599 21.2353 3.58418 20.9316 3.37342C20.6279 3.16266 20.3785 2.88849 20.2024 2.57178C20.0434 2.27303 19.789 2.03033 19.4761 1.87878C19.1633 1.72722 18.8081 1.67465 18.4619 1.72868C18.0903 1.77844 17.7118 1.74662 17.3551 1.63566C16.9984 1.52469 16.6728 1.3375 16.4031 1.08828C15.9379 0.604534 15.07 0.475534 14.4746 0.795731C13.8791 1.11593 12.9028 1.11593 12.3097 0.795731C11.9978 0.640741 11.6422 0.585084 11.2948 0.636886C10.9474 0.688688 10.6264 0.845236 10.3787 1.08368C10.1093 1.33318 9.78373 1.52056 9.42694 1.63155C9.07014 1.74253 8.69154 1.77418 8.32 1.72407C7.97425 1.67092 7.61977 1.72417 7.30778 1.87613C6.99578 2.0281 6.74241 2.27091 6.58429 2.56948C6.29741 3.15919 5.50911 3.70975 4.82929 3.78346C4.48322 3.83659 4.16356 3.99282 3.91593 4.22986C3.6683 4.4669 3.50536 4.77263 3.45036 5.10341C3.38496 5.45651 3.2361 5.7907 3.0151 6.08051C2.79411 6.37033 2.50681 6.60813 2.17509 6.7758C1.86343 6.92888 1.61033 7.1721 1.45189 7.47077C1.29344 7.76943 1.23776 8.10828 1.29277 8.43898C1.42536 9.07707 1.12402 9.96394 0.622593 10.4062C0.121165 10.8485 -0.0186564 11.6778 0.316433 12.2514C0.651522 12.8181 0.651522 13.751 0.316433 14.3177C0.156514 14.617 0.0999984 14.9571 0.155007 15.289C0.210016 15.621 0.373717 15.9277 0.622593 16.1652C1.12643 16.6028 1.42536 17.4897 1.29277 18.1324C1.2377 18.4625 1.29342 18.8007 1.45192 19.0987C1.61042 19.3966 1.86358 19.639 2.17509 19.791C2.79706 20.0651 3.3684 20.8207 3.44795 21.4657C3.52991 22.1153 4.14706 22.7096 4.82688 22.7833C5.5067 22.857 6.295 23.4099 6.58188 24.0019C6.74124 24.2993 6.99491 24.541 7.30663 24.6925C7.61836 24.8439 7.9722 24.8973 8.31759 24.845C8.98777 24.7183 9.91589 25.004 10.3763 25.4854C10.6247 25.7227 10.9452 25.8788 11.2921 25.9314C11.639 25.9839 11.9944 25.9302 12.3073 25.778C12.9004 25.4578 13.8767 25.4578 14.4721 25.778C15.0676 26.0982 15.9354 25.9645 16.4007 25.4854C16.866 25.0017 17.7893 24.7183 18.4595 24.845C18.8056 24.8983 19.1606 24.8457 19.4736 24.6947C19.7866 24.5437 20.0417 24.302 20.2024 24.0042ZM13.3921 21.1155C11.2183 21.1155 9.13352 20.2904 7.59639 18.8215C6.05927 17.3527 5.19572 15.3606 5.19572 13.2834C5.19572 11.2062 6.05927 9.21404 7.59639 7.74523C9.13352 6.27642 11.2183 5.45125 13.3921 5.45125C15.566 5.45125 17.6508 6.27642 19.1879 7.74523C20.725 9.21404 21.5886 11.2062 21.5886 13.2834C21.5886 15.3606 20.725 17.3527 19.1879 18.8215C17.6508 20.2904 15.566 21.1155 13.3921 21.1155ZM3.68902 25.7457L0.692503 41.9836L8.23322 40.9147L14.9374 44.3839L17.9219 28.2105C15.5121 28.8838 12.9713 29.0116 10.5009 28.5838C8.03048 28.156 5.69826 27.1843 3.68902 25.7457ZM22.941 25.8563C22.1881 26.3791 21.3897 26.8393 20.5544 27.2315L18.7512 36.9894L26.8729 32.7785L22.941 25.8563Z" fill="#8EC2F2"/>
</svg>
