<svg width="51" height="42" viewBox="0 0 51 42" fill="none" xmlns="http://www.w3.org/2000/svg">
<path d="M41.7273 21H37.0909V28H30.1364V32.6667H41.7273V21ZM13.9091 14H20.8636V9.33333H9.27273V21H13.9091V14ZM46.3636 0H4.63636C3.40672 0 2.22745 0.491665 1.35796 1.36683C0.488473 2.242 0 3.42899 0 4.66667V37.3333C0 38.571 0.488473 39.758 1.35796 40.6332C2.22745 41.5083 3.40672 42 4.63636 42H46.3636C47.5933 42 48.7725 41.5083 49.642 40.6332C50.5115 39.758 51 38.571 51 37.3333V4.66667C51 3.42899 50.5115 2.242 49.642 1.36683C48.7725 0.491665 47.5933 0 46.3636 0ZM46.3636 37.3333H4.63636V4.66667H46.3636V37.3333Z" fill="#2091F9"/>
</svg>
