<svg width="45" height="45" viewBox="0 0 45 45" fill="none" xmlns="http://www.w3.org/2000/svg">
<path d="M22.5 0C16.2891 0 10.9863 2.19727 6.5918 6.5918C2.19727 10.9863 0 16.2891 0 22.5C0 28.7109 2.19727 34.0137 6.5918 38.4082C10.9863 42.8027 16.2891 45 22.5 45C28.7109 45 34.0137 42.8027 38.4082 38.4082C42.8027 34.0137 45 28.7109 45 22.5C45 16.2891 42.8027 10.9863 38.4082 6.5918C34.0137 2.19727 28.7109 0 22.5 0ZM9.58008 29.0918C10.8105 32.1973 11.4258 35.0098 11.4258 37.5293C9.08203 35.8887 7.22168 33.7354 5.84473 31.0693C4.46777 28.4033 3.7793 25.5469 3.7793 22.5C3.7793 16.4648 6.15234 11.6016 10.8984 7.91016C11.9531 8.73047 12.9199 9.7998 13.7988 11.1182C14.6777 12.4365 15.0879 13.6816 15.0293 14.8535C14.7949 16.6699 13.5938 18.457 11.4258 20.2148C10.3125 21.3867 9.56543 22.7783 9.18457 24.3896C8.80371 26.001 8.93555 27.5684 9.58008 29.0918ZM41.2207 22.5C41.2207 27.6562 39.3896 32.0654 35.7275 35.7275C32.0654 39.3896 27.6562 41.2207 22.5 41.2207C19.9219 41.2207 17.4902 40.7227 15.2051 39.7266C15.498 35.918 14.7363 31.9336 12.9199 27.7734C12.2754 25.7812 12.6562 24.1992 14.0625 23.0273C16.9922 20.0977 18.5449 17.4902 18.7207 15.2051C19.0723 12.041 17.5781 8.84766 14.2383 5.625C16.5234 4.39453 19.2773 3.7793 22.5 3.7793C24.0234 3.7793 25.459 3.95508 26.8066 4.30664L23.0273 8.08594L21.709 9.4043L27.1582 14.8535L40.3418 16.6992C40.9277 18.75 41.2207 20.6836 41.2207 22.5ZM29.0918 11.4258L26.9824 9.4043L30.7617 5.625C33.9844 7.14844 36.5332 9.52148 38.4082 12.7441L29.0918 11.4258ZM23.6426 19.3359L22.1484 21.5332C20.9766 23.4082 20.8301 25.2832 21.709 27.1582L22.5 28.916L23.8184 35.2441C23.9941 36.5918 24.8145 37.4707 26.2793 37.8809C26.5137 37.998 26.8066 38.0566 27.1582 38.0566C28.0371 38.0566 28.8574 37.7344 29.6191 37.0898L31.7285 35.0684L31.9043 34.7168C32.7832 31.4355 33.7793 29.2383 34.8926 28.125C36.4746 27.0117 36.9141 25.0195 36.2109 22.1484C35.8008 20.5664 34.7168 19.4238 32.959 18.7207L28.4766 16.875H28.125C26.0742 16.875 24.5801 17.6953 23.6426 19.3359ZM25.3125 23.6426L26.8066 21.3574C27.041 20.8887 27.4219 20.6543 27.9492 20.6543L31.7285 21.9727C32.1973 22.207 32.4316 22.4414 32.4316 22.6758C32.5488 23.0859 32.6074 23.7891 32.6074 24.7852C31.0254 25.957 29.5898 28.623 28.3008 32.7832L27.334 33.75L26.2793 27.7734L25.1367 25.4883C24.7852 24.9609 24.8438 24.3457 25.3125 23.6426Z" fill="#2091F9"/>
</svg>
